HIERARCHY
ROOT Hips
{
	OFFSET -0.179506 -22.333345 2.821913
	CHANNELS 6 Xposition Yposition Zposition Zrotation Yrotation Xrotation 
	JOINT LeftUpLeg
	{
		OFFSET 6.951974 -9.140623 -0.681533
		CHANNELS 3 Zrotation Yrotation Xrotation
		JOINT LeftLeg
		{
			OFFSET 3.427654 -37.519855 -0.449580
			CHANNELS 3 Zrotation Yrotation Xrotation
			JOINT LeftFoot
			{
				OFFSET -1.359570 -39.796059 -4.369333
				CHANNELS 3 Zrotation Yrotation Xrotation
				JOINT LeftToe
				{
					OFFSET 2.635814 -5.579078 11.928840
					CHANNELS 3 Zrotation Yrotation Xrotation
					End Site
					{
						OFFSET 0.000000 0.000000 0.000000
					}
				}
			}
		}
	}
	JOINT RightUpLeg
	{
		OFFSET -6.767048 -9.052170 -0.431982
		CHANNELS 3 Zrotation Yrotation Xrotation
		JOINT RightLeg
		{
			OFFSET -3.829005 -38.256897 -0.885003
			CHANNELS 3 Zrotation Yrotation Xrotation
			JOINT RightFoot
			{
				OFFSET 1.577377 -39.841461 -4.231180
				CHANNELS 3 Zrotation Yrotation Xrotation
				JOINT RightToe
				{
					OFFSET -2.537174 -4.814398 12.334795
					CHANNELS 3 Zrotation Yrotation Xrotation
					End Site
					{
						OFFSET 0.000000 0.000000 0.000000
					}
				}
			}
		}
	}
	JOINT Spine
	{
		OFFSET -0.253288 10.896323 -2.669631
		CHANNELS 3 Zrotation Yrotation Xrotation
		JOINT Spine1
		{
			OFFSET 0.548704 13.518043 0.109247
			CHANNELS 3 Zrotation Yrotation Xrotation
			JOINT Spine2
			{
				OFFSET 0.145701 5.292222 2.542457
				CHANNELS 3 Zrotation Yrotation Xrotation
				JOINT Neck
				{
					OFFSET -0.277840 21.387037 -4.285703
					CHANNELS 3 Zrotation Yrotation Xrotation
					JOINT Head
					{
						OFFSET 0.515184 6.496960 5.134897
						CHANNELS 3 Zrotation Yrotation Xrotation
						End Site
						{
							OFFSET 0.000000 0.000000 0.000000
						}
					}
				}
				JOINT LeftShoulder
				{
					OFFSET 7.884473 12.174932 -3.408961
					CHANNELS 3 Zrotation Yrotation Xrotation
					JOINT LeftArm
					{
						OFFSET 9.097692 3.046888 -0.886815
						CHANNELS 3 Zrotation Yrotation Xrotation
						JOINT LeftForeArm
						{
							OFFSET 25.961220 -1.277207 -2.745643
							CHANNELS 3 Zrotation Yrotation Xrotation
							JOINT LeftHand
							{
								OFFSET 24.923361 0.898606 -0.117091
								CHANNELS 3 Zrotation Yrotation Xrotation
								End Site
								{
									OFFSET 0.000000 0.000000 0.000000
								}
							}
						}
					}
				}
				JOINT RightShoulder
				{
					OFFSET -8.175920 11.883285 -3.861528
					CHANNELS 3 Zrotation Yrotation Xrotation
					JOINT RightArm
					{
						OFFSET -9.601238 3.255117 -0.914307
						CHANNELS 3 Zrotation Yrotation Xrotation
						JOINT RightForeArm
						{
							OFFSET -25.374195 -1.332924 -2.140099
							CHANNELS 3 Zrotation Yrotation Xrotation
							JOINT RightHand
							{
								OFFSET -25.529810 0.777228 -0.555919
								CHANNELS 3 Zrotation Yrotation Xrotation
								End Site
								{
									OFFSET 0.000000 0.000000 0.000000
								}
							}
						}
					}
				}
			}
		}
	}
}
MOTION
Frames: 17
Frame Time: 0.033333
-0.179506 114.296890 2.821913 174.153787 10.437065 178.641109 0.587908 1.600777 -15.120547 -1.388464 7.749642 7.303684 -0.655339 8.561543 -2.210290 1.534198 -0.953153 0.050906 -1.587235 -2.616971 -4.826978 -0.056737 -3.827164 7.367421 -1.420032 -8.131952 -6.100191 1.047358 1.348922 -0.631284 3.941520 2.708602 17.980550 1.611996 -1.317618 -2.651023 1.368399 1.626476 4.131127 -1.935782 -4.478354 -4.899934 0.398804 -10.244033 -5.976254 -10.582003 -11.289950 -2.075056 -60.873147 -15.451737 15.700993 -2.383178 -15.905885 15.906514 -2.923365 -9.768153 6.236598 7.906547 16.250296 -1.557599 52.032381 16.318088 12.165031 0.481793 17.545116 11.933921 0.394961 9.048345 5.022114 
0.100734 114.348251 4.084319 173.895647 10.517737 178.577470 0.600422 1.884199 -14.696037 -1.095337 8.043878 8.439317 -0.343470 8.710498 -3.294718 1.471541 -0.929039 0.135585 -1.497292 -2.673894 -5.410615 -0.044372 -3.784870 6.922739 -1.296848 -8.113029 -5.316586 0.945641 1.304664 -0.600963 4.066785 2.643818 18.006207 1.777203 -1.314578 -2.341781 1.366520 1.752021 3.823891 -1.948397 -4.975136 -4.978442 0.504176 -10.373745 -5.895465 -10.261016 -12.317189 -2.234908 -60.951503 -16.542954 15.741867 -2.200267 -16.945391 15.420718 -2.708597 -9.794559 6.150345 7.479039 17.258209 -1.551393 51.773098 17.616623 11.815173 0.203684 18.219667 11.617759 0.535859 9.102024 5.370446 
0.344538 114.426300 4.476772 173.648065 10.819061 178.745747 0.899478 2.218095 -14.144456 -1.004168 8.231583 9.867637 -0.196200 8.959292 -4.203364 1.403251 -0.875720 0.160103 -1.510768 -2.532748 -5.691452 -0.065111 -3.328154 6.479739 -1.197435 -8.222789 -4.743516 0.923960 1.286334 -0.610017 3.893029 2.473635 17.386331 1.875146 -1.498781 -2.446612 1.328364 1.689536 3.802140 -2.155396 -4.898176 -4.833376 0.539490 -10.234378 -5.710644 -9.650742 -13.094369 -2.549343 -60.983891 -17.685897 15.976594 -2.284757 -17.783995 14.922535 -2.134180 -9.927465 5.427894 6.994310 17.883166 -2.085469 52.331824 19.037971 12.419197 0.153991 19.334188 11.496667 0.319512 8.919208 5.014889 
0.807660 114.528305 4.761215 173.304589 10.971532 178.910107 1.301050 2.583793 -13.260700 -0.881035 8.247573 11.593754 0.077162 9.340012 -5.039782 1.358743 -0.850192 0.041047 -1.490782 -2.348034 -5.817290 -0.121806 -2.703771 5.953930 -1.169148 -8.531877 -4.155724 0.662322 1.453946 -0.657230 3.707541 2.134397 16.644231 1.943238 -1.736570 -2.623471 1.260740 1.488142 3.768549 -2.267795 -4.739397 -4.503314 0.470928 -9.933323 -5.182521 -9.149919 -13.685250 -2.874441 -61.066496 -18.907353 15.949791 -2.283540 -18.797075 13.973228 -1.398190 -10.169562 4.641623 6.473892 18.375873 -2.704032 52.921079 20.412058 13.140031 0.482906 21.335612 11.697686 0.184352 8.858297 4.522493 
1.141932 114.626083 4.881640 173.139222 10.978942 179.056771 1.928601 3.402088 -12.059314 -0.661893 8.496491 14.057111 0.276403 10.014421 -6.057762 1.259387 -0.810538 -0.027062 -1.502877 -2.326168 -5.754377 -0.001290 -2.258524 5.407601 -0.996049 -8.696398 -3.679888 0.524488 1.546779 -0.654799 3.502115 1.658067 15.780173 2.123860 -2.096538 -2.800647 1.198026 1.229842 3.746632 -2.240451 -4.381933 -4.236844 0.361445 -9.465595 -4.526734 -8.571636 -14.420150 -3.274098 -61.216898 -20.561523 15.945201 -2.458623 -19.264194 13.232094 0.038150 -10.538772 4.273767 5.875406 18.695828 -3.560096 53.827866 21.722207 14.003084 0.903681 23.640840 11.992538 -0.155480 8.840484 3.933181 
1.187627 114.694824 5.176239 173.141117 11.027175 179.015186 2.876577 4.207396 -10.489520 -0.620351 8.482756 16.944733 0.190497 10.744310 -6.501455 1.069391 -0.742164 -0.230550 -1.522855 -2.487106 -5.614234 0.192588 -1.970296 4.861512 -0.782833 -8.721063 -3.195333 0.410965 1.647499 -0.744723 3.194279 1.139641 14.721137 2.365678 -2.487178 -2.862269 1.139930 0.939272 3.776174 -2.136838 -3.902293 -3.744486 0.253047 -8.664146 -4.072830 -8.539744 -14.859344 -3.564273 -61.219213 -22.187724 15.971719 -2.298904 -19.890076 11.913342 1.463296 -10.699696 3.683515 5.781115 18.929163 -4.256731 54.210147 23.188811 15.060511 1.678529 26.385373 13.152828 -0.499788 8.769775 3.679627 
0.927199 114.719864 5.413862 173.238110 11.088075 178.970026 3.999448 4.745353 -8.996938 -0.466107 8.318765 21.133761 -0.013520 11.308886 -6.337887 0.987071 -0.696118 -0.434228 -1.616057 -2.516930 -5.499806 0.308103 -1.534575 4.412524 -0.560079 -8.850284 -2.803670 0.291848 1.704746 -0.794274 2.898749 0.600636 13.635415 2.549541 -2.849634 -2.996700 1.137895 0.554200 4.102896 -2.103800 -3.507923 -3.001087 0.187501 -7.746663 -3.708331 -8.277573 -15.640884 -3.610088 -61.526442 -24.152085 15.881113 -1.918211 -19.803603 10.464519 3.273946 -10.531901 2.845938 5.406551 19.402399 -4.863574 55.001284 24.927991 15.797254 1.857049 28.266955 13.173149 -1.145412 8.464094 2.726481 
0.604959 114.700806 5.649904 173.375659 11.182591 178.664955 4.914496 4.973256 -7.643371 -0.267940 7.942319 25.798207 -0.325034 11.521614 -5.910288 1.067944 -0.678358 -0.678486 -1.692419 -2.387883 -5.380089 0.356165 -1.036058 4.522807 -0.668147 -8.918558 -2.663868 0.193831 1.723598 -0.877757 2.756746 0.130610 12.612423 2.857257 -3.341298 -2.862169 0.976909 0.189396 4.045171 -2.157173 -3.143440 -2.143177 0.059635 -6.654793 -3.525491 -8.303142 -16.583057 -3.491612 -61.594441 -26.049335 15.640651 -1.496246 -19.923710 9.659780 4.587660 -10.221668 2.809793 5.414839 19.777101 -5.149933 55.311564 26.225895 16.178386 1.939572 30.195442 13.264544 -1.970263 8.293531 2.204575 
0.414016 114.631638 5.873134 173.439893 11.421394 178.209847 5.986086 5.341649 -6.303635 -0.262348 7.868856 30.585786 -0.733531 11.354576 -4.893437 1.189600 -0.568262 -0.991004 -1.818513 -2.159935 -5.302981 0.511110 -0.558819 5.030525 -1.055736 -8.870340 -2.816072 0.180039 1.738441 -0.958272 2.719816 -0.377140 11.749470 3.033389 -3.835728 -2.718076 0.704197 -0.172807 4.011207 -2.135603 -2.727018 -1.647062 -0.269923 -5.509170 -3.409781 -8.385154 -17.632141 -3.395467 -61.748844 -27.955564 15.670413 -0.869248 -19.796282 9.163786 5.287232 -9.747212 3.078907 5.472384 20.189466 -5.463361 55.649527 27.502126 16.689986 1.744277 31.509275 13.092090 -2.744388 7.761509 1.510784 
0.305896 114.537704 6.020344 173.567312 11.626857 178.086332 7.179440 5.929508 -4.755922 -0.368131 7.540246 34.724842 -1.642725 10.835466 -3.094527 1.239962 -0.478510 -1.252238 -1.826826 -2.098793 -5.312499 0.691275 -0.259639 5.136710 -1.440432 -8.639720 -2.897625 0.267966 1.747511 -1.077834 2.860969 -0.899801 11.144422 3.131460 -4.262373 -2.631900 0.538628 -0.431450 4.010544 -2.250379 -2.474873 -1.602186 -0.359844 -4.603040 -3.486380 -8.655382 -18.434582 -3.464023 -61.696624 -29.676293 15.514833 -0.098743 -19.829206 8.513319 5.986364 -9.393503 3.263785 5.617317 20.520338 -5.815355 55.810143 28.511385 17.085743 1.527547 32.804557 13.052049 -3.231539 7.302242 1.224559 
0.364278 114.433548 5.550698 173.524763 12.093221 178.111051 8.121916 6.396915 -3.571130 -0.551562 7.395323 38.189218 -2.504101 10.048183 -1.201860 1.245548 -0.410803 -1.526614 -1.943063 -2.127714 -5.179011 0.772630 -0.155564 5.315188 -1.660488 -8.082502 -3.479098 0.350382 1.643892 -1.102841 3.030164 -1.196439 10.607805 3.199885 -4.589928 -2.431465 0.414106 -0.613862 3.720424 -2.122406 -2.295104 -1.501487 -0.513895 -4.047822 -3.164287 -8.985510 -19.299046 -3.498977 -61.637310 -31.024067 15.620520 0.341780 -19.571907 8.512427 5.920117 -9.090547 3.977706 6.066772 20.851140 -5.917796 55.512940 29.192883 17.316213 1.536159 33.455923 13.516771 -3.197279 6.803982 1.508223 
0.411837 114.337479 5.154756 173.472120 12.241172 178.135850 8.911321 6.855927 -2.345833 -0.784272 7.111891 40.679602 -3.244240 9.367810 0.929975 1.267053 -0.323216 -1.856023 -2.103623 -2.080170 -5.085485 0.902279 0.023043 5.564853 -2.013875 -7.873240 -3.983896 0.361814 1.586311 -1.111780 3.222119 -1.517126 10.300894 3.275868 -4.840102 -2.277279 0.357059 -0.813635 3.609505 -2.103288 -2.403731 -1.460270 -0.500578 -3.690435 -3.409735 -9.061112 -19.806480 -3.661959 -62.042374 -32.223066 15.913391 0.757434 -19.820997 8.510550 5.680115 -8.661636 3.971318 6.279528 20.867314 -6.160593 55.482535 29.406768 17.355208 1.305085 33.371118 13.125958 -3.316753 6.287864 1.155265 
0.329620 114.259979 4.715498 173.334027 12.750479 178.252870 9.473149 7.217423 -1.646407 -1.015860 7.159240 42.232940 -3.925596 8.910918 2.838286 1.163202 -0.339094 -1.967635 -2.329754 -2.164485 -5.084326 0.875734 0.118787 5.625030 -2.142011 -7.439979 -4.402538 0.358019 1.464927 -1.124330 3.499041 -1.822981 9.980418 3.320535 -5.019033 -2.239995 0.381389 -0.958426 3.670144 -2.156724 -2.384770 -1.462464 -0.403129 -3.019820 -3.666271 -9.275882 -20.030723 -3.770198 -62.466158 -32.785848 16.323347 1.171025 -20.366041 8.258649 5.622771 -8.725802 3.986949 6.525477 20.720750 -6.208151 55.445399 29.285905 17.400353 1.430246 32.787248 13.212473 -3.147227 5.968215 1.400176 
0.537462 114.200851 4.105085 172.977078 13.099777 178.351620 10.093124 7.522926 -1.456246 -1.349237 7.179458 43.255490 -4.529860 8.401726 4.690270 1.058604 -0.417178 -2.023481 -2.668590 -2.249033 -4.930337 0.883072 0.552212 5.683091 -2.354966 -7.227399 -4.916633 0.416568 1.313545 -1.131363 3.651449 -1.934856 9.649687 3.414319 -5.247726 -2.311787 0.470184 -1.084889 3.863328 -2.263969 -2.420205 -1.268048 -0.242888 -2.862766 -4.055749 -9.259087 -20.234142 -3.931390 -63.023677 -33.351944 16.768261 1.417680 -20.313499 8.366136 5.129039 -8.744262 4.271738 6.864965 20.462963 -6.159488 55.022257 28.734093 16.998799 1.750790 31.551374 13.349615 -2.602380 5.791546 1.470308 
0.706945 114.155548 3.496159 172.809279 13.199231 178.424965 10.418409 7.715979 -1.172553 -1.563530 6.866632 43.064816 -4.892953 8.055945 5.966006 0.914166 -0.500962 -1.853355 -2.858252 -2.253219 -4.707856 0.920568 0.925543 5.831312 -2.685856 -7.166568 -5.332277 0.693938 1.092491 -1.117233 3.845524 -2.049890 9.599476 3.659600 -5.414493 -2.353750 0.612040 -1.212906 3.920450 -2.463793 -2.311008 -1.068211 -0.069285 -2.655696 -4.517286 -9.311190 -20.348368 -4.032379 -63.231771 -33.725471 17.029380 1.367673 -20.623062 8.609913 4.749609 -8.837988 4.529891 7.235289 20.005929 -5.872698 54.340218 27.540388 16.533265 2.371084 30.214423 13.989214 -1.981581 5.791669 2.048808 
0.892649 114.110443 2.790108 172.569138 13.309509 178.656678 10.534054 7.672111 -1.194202 -1.742229 6.559404 42.126821 -5.151055 7.830438 6.970001 0.762558 -0.591499 -1.748193 -3.089765 -2.186745 -4.557980 0.894307 1.385870 5.871085 -2.961921 -7.241405 -5.745160 0.775453 0.972207 -1.089171 4.097322 -2.135139 9.693296 3.748495 -5.490409 -2.530806 0.739512 -1.335892 4.034768 -2.669317 -2.220011 -1.061425 0.112144 -2.625140 -4.801823 -9.407716 -20.279480 -4.158724 -63.177073 -33.916561 17.156845 1.224171 -20.457771 8.722877 4.339316 -8.862272 4.673637 7.655069 19.411740 -5.487019 53.468924 26.042613 15.947241 3.132271 28.226699 14.603311 -1.350827 5.768044 2.684267 
0.989245 114.062210 2.288124 172.311418 13.479299 178.759570 10.439895 7.641439 -1.565145 -1.813135 6.383471 40.937524 -5.176821 7.832058 7.236561 0.585961 -0.685157 -1.626540 -3.363745 -2.126020 -4.431844 0.878625 2.073604 5.925263 -3.107269 -7.457332 -6.143120 0.791130 0.906386 -1.101119 4.436229 -2.120137 9.887387 3.822075 -5.439088 -2.727671 0.840249 -1.381755 4.165367 -2.977515 -2.216095 -1.038644 0.290011 -2.766885 -5.052735 -9.497211 -20.043064 -4.354052 -62.788475 -33.918447 17.251196 0.778762 -20.067160 9.181059 3.904501 -8.954074 5.049633 8.410413 18.548466 -4.858866 52.007760 24.009052 15.128403 3.877527 26.052138 15.326124 -0.573736 5.809988 3.618522 
